<svg width="15" height="14" viewBox="0 0 15 14" fill="none" xmlns="http://www.w3.org/2000/svg">
<path d="M2.00683 14C1.70476 14 1.50338 13.9 1.302 13.7C0.999929 13.4 0.899239 13 1.10062 12.7L2.20821 9.3C1.80545 8.4 1.70476 7.6 1.70476 6.7C1.70476 4.2 3.11442 1.9 5.43029 0.7C6.3365 0.2 7.3434 0 8.35031 0H8.65238C12.0758 0.2 14.7945 2.9 14.9959 6.3V6.7C14.9959 7.7 14.7945 8.8 14.291 9.7C13.1834 12 10.8676 13.4 8.24961 13.4C7.3434 13.4 6.43719 13.2 5.63167 12.9L2.20821 14C2.20821 14 2.10752 14 2.00683 14ZM8.35031 2C7.64547 2 6.94064 2.2 6.3365 2.5C4.72546 3.3 3.71856 4.9 3.71856 6.7C3.71856 7.4 3.91994 8.1 4.22201 8.8C4.3227 9 4.3227 9.3 4.3227 9.6L3.71856 11.5L5.63167 10.9C5.93374 10.8 6.13512 10.8 6.43719 11C7.04133 11.3 7.84685 11.5 8.55169 11.5C10.3641 11.5 11.9751 10.5 12.7807 8.9C12.8814 8.1 13.0827 7.4 13.0827 6.7V6.3C12.982 4 11.0689 2.1 8.65238 2H8.35031Z" fill="#0078D2"/>
</svg>
