<svg width="13" height="9" viewBox="0 0 13 9" fill="none" xmlns="http://www.w3.org/2000/svg">
<path fill-rule="evenodd" clip-rule="evenodd" d="M2.22361 0.552786C2.393 0.214002 2.73926 0 3.11803 0H9.88197C10.2607 0 10.607 0.214002 10.7764 0.552786L12.3944 3.78885C12.4639 3.92771 12.5 4.08082 12.5 4.23607V8C12.5 8.55228 12.0523 9 11.5 9H1.5C0.947715 9 0.5 8.55228 0.5 8V4.23607C0.5 4.08082 0.536145 3.92771 0.605573 3.78885L2.22361 0.552786ZM3.5 1H9.5L11 4H9.5C8.94772 4 8.5 4.44772 8.5 5V5C8.5 5.55228 8.05228 6 7.5 6H5.5C4.94772 6 4.5 5.55228 4.5 5V5C4.5 4.44772 4.05228 4 3.5 4H2L3.5 1Z" fill="#0078D2"/>
</svg>
