<svg width="17" height="16" viewBox="0 0 17 16" fill="none" xmlns="http://www.w3.org/2000/svg">
<path fill-rule="evenodd" clip-rule="evenodd" d="M5.07129 1C4.519 1 4.07129 1.44772 4.07129 2V3H2.07129C1.519 3 1.07129 3.44772 1.07129 4V14C1.07129 14.5523 1.519 15 2.07129 15H14.0713C14.6236 15 15.0713 14.5523 15.0713 14V4C15.0713 3.44772 14.6236 3 14.0713 3H12.0713V2C12.0713 1.44772 11.6236 1 11.0713 1C10.519 1 10.0713 1.44772 10.0713 2V3H6.07129V2C6.07129 1.44772 5.62357 1 5.07129 1ZM3.07129 7H13.0713V13H3.07129V7Z" fill="white"/>
</svg>
