<svg width="56" height="32" viewBox="0 0 56 32" fill="none" xmlns="http://www.w3.org/2000/svg">
<path d="M30.136 27.6377C28.9945 27.6377 28.1075 27.3154 27.475 26.6708C26.8426 26.0092 26.5264 24.9828 26.5264 23.5918C26.5264 22.4213 26.7346 21.132 27.1511 19.724C27.5676 18.316 28.2463 17.1031 29.1873 16.0852C30.1283 15.0504 31.3238 14.533 32.7738 14.533C34.4706 14.533 35.319 15.3473 35.319 16.9758C35.319 17.9258 35.0722 18.7995 34.5786 19.5968C34.085 20.3941 33.4294 21.0387 32.6118 21.5307C31.7943 22.0057 30.9227 22.2771 29.9972 22.3449C29.9663 22.8539 29.9509 23.1931 29.9509 23.3628C29.9509 24.194 30.082 24.7623 30.3442 25.0677C30.6065 25.356 31.0307 25.5002 31.6169 25.5002C32.4498 25.5002 33.1594 25.2882 33.7456 24.8641C34.3472 24.44 35.0028 23.7954 35.7124 22.9302H36.4991C34.7868 26.0685 32.6658 27.6377 30.136 27.6377ZM30.1823 21.1235C30.753 21.0896 31.2929 20.8691 31.802 20.4619C32.3264 20.0548 32.7429 19.5374 33.0515 18.9097C33.3754 18.2821 33.5374 17.6205 33.5374 16.9249C33.5374 16.2294 33.3445 15.8816 32.9589 15.8816C32.4036 15.8816 31.856 16.416 31.3161 17.4847C30.7916 18.5535 30.4137 19.7664 30.1823 21.1235ZM31.0615 12.9045C30.6605 12.9045 30.3211 12.7603 30.0434 12.4719C29.7812 12.1665 29.6501 11.7933 29.6501 11.3523C29.6501 10.9282 29.7812 10.5634 30.0434 10.2581C30.3211 9.95273 30.6605 9.80005 31.0615 9.80005C31.4472 9.80005 31.7788 9.95273 32.0565 10.2581C32.3342 10.5634 32.473 10.9282 32.473 11.3523C32.473 11.7933 32.3342 12.1665 32.0565 12.4719C31.7788 12.7603 31.4472 12.9045 31.0615 12.9045ZM35.2265 12.9045C34.8254 12.9045 34.486 12.7603 34.2084 12.4719C33.9461 12.1665 33.815 11.7933 33.815 11.3523C33.815 10.9282 33.9461 10.5634 34.2084 10.2581C34.486 9.95273 34.8254 9.80005 35.2265 9.80005C35.6121 9.80005 35.9438 9.95273 36.2214 10.2581C36.4991 10.5634 36.6379 10.9282 36.6379 11.3523C36.6379 11.7933 36.4991 12.1665 36.2214 12.4719C35.9438 12.7603 35.6121 12.9045 35.2265 12.9045Z" fill="#193647"/>
<path d="M37.8363 27.6377C36.8799 27.6377 36.1857 27.3832 35.7538 26.8743C35.3064 26.3484 35.0828 25.7038 35.0828 24.9404C35.0828 24.2619 35.2139 23.736 35.4761 23.3628C35.7384 22.9896 36.0623 22.803 36.4479 22.803C36.7873 22.803 37.065 22.9217 37.2809 23.1592C37.0804 23.7529 36.9801 24.3128 36.9801 24.8386C36.9801 25.3306 37.065 25.6953 37.2347 25.9328C37.4043 26.1703 37.5972 26.2891 37.8131 26.2891C38.2296 26.2891 38.6307 25.9074 39.0163 25.144C39.402 24.3806 39.7182 23.4306 39.965 22.294C40.2118 21.1575 40.3352 20.0887 40.3352 19.0878C40.3352 17.3066 39.8647 16.416 38.9238 16.416C38.4919 16.416 38.1448 16.5687 37.8825 16.874C37.6203 17.1794 37.3735 17.6629 37.1421 18.3245H35.9389C36.2783 17.0861 36.741 16.1446 37.3272 15.5C37.9288 14.8553 38.7464 14.533 39.7799 14.533C40.8288 14.533 41.6541 14.8977 42.2557 15.6272C42.8573 16.3566 43.1581 17.3406 43.1581 18.5789C43.1581 18.9861 43.135 19.4102 43.0887 19.8512H44.477L45.4489 14.762H48.5494L47.5776 19.8512H48.8734C49.2899 18.3075 49.8915 17.0352 50.6782 16.0343C51.4649 15.0334 52.4444 14.533 53.6168 14.533C54.4806 14.533 55.0899 14.762 55.4447 15.22C55.8149 15.6611 56.0001 16.2124 56.0001 16.874C56.0001 17.4678 55.8844 17.9258 55.653 18.2481C55.437 18.5704 55.1593 18.7316 54.82 18.7316C54.5423 18.7316 54.2724 18.6298 54.0101 18.4262C54.1644 17.8664 54.2415 17.366 54.2415 16.9249C54.2415 16.6026 54.1952 16.3482 54.1027 16.1616C54.0101 15.9749 53.879 15.8816 53.7093 15.8816C53.3237 15.8816 52.9303 16.2718 52.5293 17.0522C52.1436 17.8155 51.8274 18.7655 51.5806 19.9021C51.3338 21.0217 51.2104 22.082 51.2104 23.0829C51.2104 23.982 51.3646 24.652 51.6731 25.0931C51.9816 25.5342 52.3981 25.7547 52.9226 25.7547C53.8019 25.7547 54.6889 25.2967 55.5836 24.3806C55.3367 25.7208 54.8508 26.6029 54.1258 27.027C53.4008 27.4341 52.6141 27.6377 51.7657 27.6377C50.7167 27.6377 49.8915 27.273 49.2899 26.5435C48.6883 25.8141 48.3875 24.8302 48.3875 23.5918C48.3875 22.7097 48.4492 21.9717 48.5726 21.378H47.2537L46.0967 27.485H42.9962L44.1762 21.378H42.8805C42.5565 23.1083 41.9704 24.5842 41.1219 25.8056C40.2735 27.027 39.1783 27.6377 37.8363 27.6377Z" fill="#193647"/>
<g clip-path="url(#clip0_258_10796)">
<path d="M22.3807 13.2791C21.1973 13.9801 19.8978 14.3114 18.5868 14.5918C17.531 14.8084 16.452 14.9359 15.3962 15.1652C13.8414 15.4838 12.2867 15.8407 10.7436 16.2102C9.58341 16.4906 8.58562 17.1533 7.57622 17.816C7.20494 18.0581 6.83367 18.313 6.4624 18.5551C6.41599 18.5551 6.21875 18.5169 6.21875 18.5169C6.21875 18.5169 6.25356 18.3767 6.32317 18.1983C7.23975 16.4906 8.56241 15.229 10.0939 14.2349C14.1431 11.0999 17.1365 11.4058 17.4846 11.3421C17.2873 11.0744 17.0205 11.1509 16.8696 10.9343C16.3475 10.1569 15.8022 9.3795 15.3149 8.57664C15.0945 8.21981 14.9321 7.79926 14.816 7.37871C14.6072 6.65231 14.8508 6.16804 15.5586 6.09157C16.2315 6.01511 16.9161 6.07883 17.589 6.1298C18.7956 6.23176 20.0023 6.52487 21.2205 6.2445C21.673 6.14255 21.8818 5.90041 22.3343 5.79846C22.7404 5.87493 22.9956 6.05334 23.1465 6.19352C23.9006 6.8817 24.736 7.31499 25.7454 7.36596C26.1167 7.37871 26.4879 7.54438 26.8592 7.63359C26.8592 7.74828 26.8592 7.85023 26.8592 7.96493C26.894 8.04139 26.9404 8.11786 26.9752 8.18158C27.0681 8.25804 27.1609 8.3345 27.2653 8.39822C27.2305 8.52566 27.2073 8.67859 27.1377 8.79328C26.6156 11.6352 22.3807 13.2791 22.3807 13.2791Z" fill="#FEFAF9"/>
<path opacity="0.3" d="M12.2753 17.1023C8.70179 17.0004 7.41394 17.6121 7.41394 17.6121C8.35372 16.9749 10.1405 15.9299 11.2311 15.6623C12.693 15.3054 14.1549 14.9741 15.6168 14.6683C16.6146 14.4643 17.624 14.3369 18.6217 14.1203C22.0792 13.2919 23.866 12.1832 24.2373 11.9283C24.8406 11.4823 26.3373 9.94026 27.0566 8.44922C27.5439 9.81282 23.8776 12.6802 23.5063 12.9223C22.3345 13.6615 21.1626 14.4134 20.3041 15.5858C20.0836 15.8917 18.993 19.7403 18.7146 20.8236C18.5985 23.2704 18.8538 23.4106 19.4687 25.1947C20.3041 27.0171 21.5107 29.8335 21.5803 30.0119C20.4549 29.5277 16.5797 28.3552 15.6052 27.5651C14.9322 27.0171 14.2709 26.4309 13.4239 26.2015C12.5305 25.9594 11.6952 26.0486 10.9874 26.7113C10.4073 27.2465 9.88522 27.8582 9.35152 28.4444C9.21229 28.5974 9.10787 28.8013 8.99185 28.9669C8.33052 29.9482 7.10067 30.1394 6.88023 28.6228C6.61338 26.4691 6.81062 25.577 6.93824 24.7869C7.30952 22.5058 9.82721 18.9375 12.2753 17.1023Z" fill="#D8D8D8"/>
<path d="M26.3721 7.60808C26.0008 7.51887 25.6411 7.3532 25.2582 7.34046C24.2488 7.28948 23.4135 6.86893 22.6593 6.16802C22.5085 6.02783 22.2881 5.9896 22.0908 5.91314C22.6709 5.42887 22.6709 5.42887 22.6941 4.65149C23.7732 5.95137 24.8638 7.11107 26.6273 6.81796C26.5113 7.17479 26.4417 7.39143 26.3721 7.60808Z" fill="#FAFAFA"/>
<path d="M27.5555 6.11708C26.9754 6.35922 26.4185 6.24452 25.8616 6.21904C25.0727 6.1808 24.4461 5.83672 23.8892 5.18678C23.2279 4.42214 22.5201 3.68299 21.7544 3.0458C20.1417 1.70769 18.2737 0.981282 16.3361 0.458781C15.1063 0.114695 13.8532 0.0382318 12.4842 0C13.9925 1.045 14.7698 2.38311 14.7466 2.42135C13.1223 1.8861 11.5096 1.32537 9.81565 1.23616C8.13332 1.1597 6.47419 1.3636 4.88468 2.05177C6.76425 2.63799 8.5394 3.38988 10.0825 4.95739C9.85046 4.95739 7.12392 5.11031 5.89408 5.3397C4.16534 5.6583 2.58743 6.37196 1.28797 7.69733C1.18355 7.79928 1.10233 7.93947 1.02112 8.05416C2.12333 8.13062 3.19074 8.15611 4.23495 8.2963C5.27916 8.43648 6.28855 8.76782 7.32116 9.37953C4.33937 10.2716 1.64764 11.4568 0.0117188 14.5153C0.893492 14.2859 1.69405 14.0056 2.51781 13.8654C3.32997 13.7252 4.16534 13.636 5.09352 13.8654C2.85428 15.5221 1.14874 17.4719 0.684651 20.5432C0.858685 20.403 0.939901 20.3266 1.03272 20.2501C2.91229 18.6571 4.23495 18.4277 4.40898 18.4405C4.35097 18.6316 4.28136 18.8355 4.23495 19.0267C4.0029 19.8295 3.70125 20.6197 3.55042 21.448C3.35318 22.5567 3.38798 23.6655 3.89848 24.7742C4.31617 23.4616 4.89628 22.3528 5.84767 21.55C5.76645 24.1115 5.72004 26.6348 6.71784 28.9415C5.76645 29.1581 4.80346 29.362 3.84047 29.5914C3.59682 29.6551 3.36478 29.7698 3.15594 29.9227C2.81947 30.1776 2.80787 30.4197 3.15594 30.6491C3.43439 30.8276 3.66644 30.9295 4.06092 31.0569C5.15153 31.4138 6.30016 31.5412 7.42558 31.6687C10.8366 32.051 14.2477 32.0765 17.6588 31.7833C19.1903 31.6559 20.7102 31.3246 22.2301 31.0697C22.5434 31.0187 22.8566 30.8658 23.1467 30.6874C23.5644 30.4325 23.5528 30.1521 23.1351 29.91C22.7638 29.7061 22.3461 29.5914 21.9516 29.413C21.8356 29.362 21.6732 29.2218 21.6732 29.1199C21.6964 28.1131 21.2787 27.272 20.861 26.4309C19.84 24.4046 19.4107 22.2509 19.5036 19.957C19.5964 17.765 20.3969 15.9809 22.0213 14.6937C22.8218 14.0693 23.6688 13.5213 24.5041 12.9478C25.5599 12.2342 26.4533 11.3548 27.0218 10.1187C27.2887 9.55794 27.4859 8.95898 27.7412 8.3855C27.9384 7.95221 28.2285 7.56989 28.3793 7.12385C28.623 6.42294 28.1937 5.86221 27.5555 6.11708ZM10.2681 28.6483C10.7554 27.8455 11.2659 27.17 11.9969 26.7368C12.4494 26.4691 12.9367 26.4436 13.3892 26.6603C13.8881 26.9152 14.3753 27.221 14.8394 27.5396C15.3035 27.8582 15.7444 28.2278 16.2549 28.6356C14.2245 28.6483 12.2869 28.6483 10.2681 28.6483ZM25.2467 11.3931C24.9218 11.6607 24.4345 11.7754 24.0052 11.495C23.9356 11.4313 24.0168 11.3293 24.04 11.2656C24.1561 11.0108 24.1097 10.7814 23.8776 10.7049C23.634 10.6539 23.2859 11.2274 23.0887 11.4695C22.903 11.7117 22.7986 12.0175 23.0655 12.1067C23.2743 12.2342 23.692 11.1637 24.3301 12.1959C23.9704 12.4253 23.6108 12.6547 23.2627 12.8841C22.1373 13.585 21.0235 14.3114 20.1881 15.4456C19.4223 16.3377 19.1903 17.0004 18.8538 18.5169C18.2273 21.3206 18.6682 24.0988 19.956 26.6603C20.1185 26.9916 20.2461 27.3485 20.3969 27.6925C20.5014 27.9857 20.6406 28.266 20.7102 28.5591C20.8494 29.1708 20.6058 29.4894 20.0489 29.3747C19.5732 29.2728 19.1207 29.0179 18.6566 28.8395C17.5776 28.3807 16.6146 27.6925 15.6864 26.9407C15.0367 26.4182 14.4102 25.8574 13.598 25.628C12.7394 25.3986 11.9389 25.4878 11.2543 26.1123C10.6974 26.6221 10.1289 27.1446 9.68802 27.7818C8.35376 29.7061 6.70624 28.916 7.20513 25.5643C7.41398 24.1752 7.77365 22.9263 8.45818 21.7666C9.28194 20.3775 10.2913 19.1541 11.44 18.0709C11.7416 17.7905 11.9969 17.4464 12.2753 17.1278C8.96868 16.8475 7.44878 17.6376 7.41398 17.6376C7.44878 17.5356 8.28415 15.8025 10.9179 13.7252C12.7162 12.5528 14.677 11.8901 16.7306 11.5205C16.9627 11.4823 17.1831 11.4313 17.4964 11.3676C17.3223 11.1254 17.1715 10.9215 17.0323 10.7176C16.5566 10.004 16.0693 9.30306 15.6284 8.56392C15.4312 8.23257 15.2803 7.85026 15.1759 7.46794C14.9903 6.80526 15.2107 6.37196 15.8488 6.2955C16.4522 6.23178 17.0787 6.28275 17.6936 6.33373C18.7842 6.42294 19.8632 6.62684 20.977 6.43568C22.0329 6.25727 22.729 5.70928 22.7522 5.00836C23.7268 6.19355 24.713 7.25129 26.3025 6.98367C26.1981 7.30227 26.0937 7.49343 26.0704 7.69733C26.024 7.96495 26.1285 8.14337 26.1749 8.20709C26.4765 8.60215 27.0682 8.46197 27.0566 8.48745C26.7666 9.62166 26.1053 10.6794 25.2467 11.3931Z" fill="#193647"/>
<path d="M12.2752 17.1023C11.057 20.6324 9.68793 23.1047 9.015 27.8454C8.81776 29.1963 6.96139 29.3874 7.11222 26.2907C7.14703 24.8888 7.59952 23.7036 8.13322 22.3273C9.39787 19.9824 10.4189 19.1031 12.2752 17.1023Z" fill="#FEFAF9"/>
<path d="M18.4362 28.3807C17.5196 27.2593 17.1368 25.9466 17.102 24.4429C17.0555 22.8626 17.218 21.3333 17.6009 19.8168C17.9141 18.6444 18.3666 18.0199 19.0047 17.0769C19.0627 16.9877 19.0743 16.9749 19.202 16.7965C19.0047 17.4847 18.9235 17.816 18.8191 18.5552C18.6915 19.5237 18.7031 19.6002 18.6451 20.0717C18.5174 21.1549 18.5871 22.6332 18.9815 24.1625C19.2832 25.3477 19.4804 25.7173 20.0025 26.8642C20.165 27.2465 20.1186 27.1191 20.3622 27.7181C20.4666 28.0112 20.6058 28.2915 20.6755 28.5846C20.8147 29.1963 20.5826 29.464 20.0141 29.4002C19.1556 29.3238 18.5406 28.4954 18.4362 28.3807Z" fill="#FEFAF9"/>
<path d="M20.3504 27.7308C20.6521 28.865 19.4687 27.9347 19.051 27.221C18.5753 26.3544 18.0996 25.0928 18.0532 23.8566C17.9836 22.2254 18.146 21.2441 18.3084 19.957C18.3664 19.4982 18.5057 18.861 18.8769 18.2111C18.4244 21.0657 18.6333 24.137 19.9211 26.6985C20.0836 27.0426 20.2112 27.3867 20.3504 27.7308Z" fill="#FEFAF9"/>
<path d="M10.1292 6.5249C10.4773 6.48667 10.7789 6.42295 11.1154 6.00239C8.62089 5.98965 6.42806 5.30148 3.97998 7.00917C4.6065 6.98368 5.22142 6.90722 5.82474 6.77978C7.25182 6.48667 7.93636 6.74154 10.1292 6.5249Z" fill="#FEFAF9"/>
<path d="M12.3569 3.19878C12.6237 3.24976 12.8557 3.2625 13.1806 3.02036C11.3359 2.48512 9.83916 1.51658 7.72754 2.26847C8.19163 2.38317 8.66732 2.45963 9.13142 2.48512C10.2336 2.56158 10.6977 2.89293 12.3569 3.19878Z" fill="#FEFAF9"/>
<path d="M16.1621 1.22343C17.3804 2.12825 18.5986 3.00758 20.1185 3.0713C19.6196 2.21746 16.8118 0.955812 16.1621 1.22343Z" fill="#FEFAF9"/>
<path d="M9.375 7.99043C11.2314 8.04141 12.612 8.38549 14.2248 9.17561C12.9485 7.88848 11.1501 7.26403 9.375 7.99043Z" fill="#FEFAF9"/>
<path d="M4.89633 19.8678C4.68749 20.2502 4.43224 20.607 4.57147 21.1295C5.63888 19.7277 5.7433 19.4346 5.53446 18.5425C5.29081 19.065 5.11677 19.4855 4.89633 19.8678Z" fill="#FEFAF9"/>
<path d="M20.4898 7.4552C20.4898 7.87575 20.6639 8.48746 21.0119 8.44923C21.2208 8.43648 21.3368 8.05416 21.2672 7.68459C21.6501 8.24532 21.6849 8.60215 21.4412 8.98447C21.2092 9.35405 20.8379 9.49423 20.4898 9.36679C20.0721 9.20112 19.8285 8.84429 19.8169 8.37276C19.8053 7.88849 20.0025 7.62087 20.4898 7.4552Z" fill="#193647"/>
<path d="M10.6859 20.4668C10.6395 20.5942 9.32844 23.64 8.86434 25.1056C8.78313 25.3604 8.70191 25.6281 8.55108 25.832C8.42346 26.0104 7.84334 26.227 7.82014 25.5261C7.80854 25.2203 7.92456 24.9017 8.04058 24.6213C9.57208 20.9765 10.6395 20.4413 10.6859 20.4668Z" fill="#FEFAF9"/>
<path d="M26.813 7.34055C27.0102 6.90726 27.2539 6.67787 27.776 6.85628C27.7412 7.28958 27.2423 7.45525 26.813 7.34055Z" fill="#E4E5E5"/>
<path d="M14.2246 4.68973C14.2246 4.68973 16.0926 4.61327 17.5313 5.23772C17.5313 5.23772 17.0092 3.51729 14.2246 4.68973Z" fill="#FEFAF9"/>
<path d="M6.99609 12.4381C6.99609 12.4381 9.0613 11.5588 10.7204 11.8391C10.7204 11.8391 9.89666 10.055 6.99609 12.4381Z" fill="#FEFAF9"/>
<path d="M3.05176 17.3572C3.05176 17.3572 4.36282 14.9741 6.07995 14.4516C8.15676 13.8144 5.48824 15.4839 5.48824 15.4839C5.48824 15.4839 3.67828 16.3505 3.05176 17.3572Z" fill="#FEFAF9"/>
<path d="M3.04004 12.7312C3.04004 12.7312 5.30248 10.9598 8.04062 10.5903C10.3495 10.2844 7.14725 9.72367 5.10524 10.8324C3.79419 11.546 3.12126 12.6548 3.04004 12.7312Z" fill="#FEFAF9"/>
</g>
<defs>
<clipPath id="clip0_258_10796">
<rect width="28.4488" height="32" fill="white"/>
</clipPath>
</defs>
</svg>
