<svg width="8" height="20" viewBox="0 0 8 20" fill="none" xmlns="http://www.w3.org/2000/svg">
<path d="M8 17.7166L7.73921 18.9251C6.95682 19.2752 6.33185 19.5417 5.86647 19.7248C5.40058 19.9086 4.85925 20 4.24248 20C3.29532 20 2.5586 19.737 2.03316 19.2145C1.50773 18.69 1.24492 18.0253 1.24492 17.219C1.24492 16.9069 1.26399 16.5858 1.30364 16.2587C1.34362 15.9312 1.40719 15.5623 1.49418 15.1501L2.47195 11.2269C2.55894 10.8512 2.63288 10.4953 2.69209 10.1587C2.75215 9.82418 2.78109 9.5164 2.78109 9.23935C2.78109 8.73833 2.68958 8.38789 2.50741 8.19085C2.32524 7.99439 1.97763 7.89464 1.46156 7.89464C1.20879 7.89464 0.949 7.94054 0.68419 8.02929C0.418209 8.11841 0.190871 8.20451 0 8.28453L0.261464 7.07504C0.901993 6.7794 1.51425 6.52624 2.09991 6.31612C2.68557 6.10544 3.23894 6 3.76237 6C4.70301 6 5.42885 6.25771 5.93857 6.77314C6.44828 7.28895 6.70305 7.9576 6.70305 8.78157C6.70305 8.95205 6.68632 9.25243 6.65036 9.68176C6.61523 10.112 6.54982 10.5063 6.45447 10.8649L5.48088 14.7723C5.40108 15.0862 5.32932 15.445 5.26692 15.8487C5.20252 16.2498 5.17174 16.5562 5.17174 16.7618C5.17174 17.2806 5.27378 17.6349 5.47837 17.8232C5.68446 18.0115 6.03944 18.1052 6.54363 18.1052C6.78034 18.1052 7.04966 18.0576 7.34893 17.9641C7.64737 17.8706 7.865 17.7885 8 17.7166Z" fill="white"/>
<path d="M8 2C8 3.10457 7.10457 4 6 4C4.89543 4 4 3.10457 4 2C4 0.89543 4.89543 0 6 0C7.10457 0 8 0.89543 8 2Z" fill="white"/>
</svg>
